<svg width="325" height="334" viewBox="0 0 325 334" fill="none" xmlns="http://www.w3.org/2000/svg">
<path fill-rule="evenodd" clip-rule="evenodd" d="M280.391 254.42C307.64 227.467 324.522 190.054 324.522 148.699C324.522 66.5746 257.948 0 175.824 0C118.652 0 69.016 32.2652 44.1316 79.5799C16.8825 106.533 0 143.946 0 185.301C0 267.425 66.5746 334 148.699 334C205.871 334 255.506 301.735 280.391 254.42ZM280.391 254.42C253.529 280.991 216.592 297.397 175.824 297.397C93.6999 297.397 27.1252 230.823 27.1252 148.699C27.1252 123.747 33.2711 100.23 44.1316 79.5799C70.9938 53.0092 107.93 36.6027 148.699 36.6027C230.823 36.6027 297.397 103.177 297.397 185.301C297.397 210.253 291.251 233.77 280.391 254.42Z" fill="#F1F1F1"/>
</svg>
