<svg width="39" height="40" viewBox="0 0 39 40" fill="none" xmlns="http://www.w3.org/2000/svg">
<path fill-rule="evenodd" clip-rule="evenodd" d="M33.0588 30.1234C36.2716 26.9455 38.2621 22.5345 38.2621 17.6585C38.2621 7.97591 30.4127 0.126587 20.7301 0.126587C13.9894 0.126587 8.13717 3.93074 5.20323 9.50927C1.99049 12.6871 0 17.0982 0 21.9741C0 31.6567 7.84932 39.5061 17.532 39.5061C24.2727 39.5061 30.1249 35.7019 33.0588 30.1234ZM33.0588 30.1234C29.8917 33.2561 25.5368 35.1905 20.7301 35.1905C11.0475 35.1905 3.19814 27.3412 3.19814 17.6585C3.19814 14.7166 3.92275 11.944 5.20323 9.50927C8.37035 6.37651 12.7253 4.44215 17.532 4.44215C27.2146 4.44215 35.0639 12.2915 35.0639 21.9741C35.0639 24.916 34.3393 27.6887 33.0588 30.1234Z" fill="#FE8F1D"/>
</svg>
